<svg id="Layer_1" stroke="#fff" data-name="Layer 1" xmlns="http://www.w3.org/2000/svg" viewBox="0 0 122.88 102.4"><defs><style>.cls-1{fill-rule:evenodd;}</style></defs><title>grid-view</title><path class="cls-1" d="M1.55,40.32H27.78a1.58,1.58,0,0,1,1.55,1.55V60.53a1.6,1.6,0,0,1-1.55,1.55H1.55A1.58,1.58,0,0,1,0,60.53V41.87a1.54,1.54,0,0,1,1.55-1.55ZM95.1,0h26.23a1.57,1.57,0,0,1,1.55,1.55V20.21a1.59,1.59,0,0,1-1.55,1.54H95.1a1.57,1.57,0,0,1-1.55-1.54V1.55A1.55,1.55,0,0,1,95.1,0ZM1.55,0H27.78a1.58,1.58,0,0,1,1.55,1.55V20.21a1.59,1.59,0,0,1-1.55,1.54H1.55A1.57,1.57,0,0,1,0,20.21V1.55A1.54,1.54,0,0,1,1.55,0ZM48.32,0H74.56A1.57,1.57,0,0,1,76.1,1.55V20.21a1.59,1.59,0,0,1-1.54,1.54H48.32a1.57,1.57,0,0,1-1.54-1.54V1.55A1.54,1.54,0,0,1,48.32,0ZM1.55,80.65H27.78a1.58,1.58,0,0,1,1.55,1.54v18.67a1.6,1.6,0,0,1-1.55,1.54H1.55A1.57,1.57,0,0,1,0,100.86V82.19a1.54,1.54,0,0,1,1.55-1.54Zm93.55,0h26.23a1.57,1.57,0,0,1,1.55,1.54v18.67a1.6,1.6,0,0,1-1.55,1.54H95.1a1.57,1.57,0,0,1-1.55-1.54V82.19a1.55,1.55,0,0,1,1.55-1.54Zm-46.78,0H74.56a1.57,1.57,0,0,1,1.54,1.54v18.67a1.6,1.6,0,0,1-1.54,1.54H48.32a1.57,1.57,0,0,1-1.54-1.54V82.19a1.54,1.54,0,0,1,1.54-1.54ZM95.1,40.32h26.23a1.57,1.57,0,0,1,1.55,1.55V60.53a1.6,1.6,0,0,1-1.55,1.55H95.1a1.58,1.58,0,0,1-1.55-1.55V41.87a1.55,1.55,0,0,1,1.55-1.55Zm-46.78,0H74.56a1.57,1.57,0,0,1,1.54,1.55V60.53a1.6,1.6,0,0,1-1.54,1.55H48.32a1.58,1.58,0,0,1-1.54-1.55V41.87a1.54,1.54,0,0,1,1.54-1.55Z"/></svg>